<svg xmlns="http://www.w3.org/2000/svg" xmlns:xlink="http://www.w3.org/1999/xlink" width="40" height="40" preserveAspectRatio="xMidYMid meet" viewBox="0 0 32 32" style="-ms-transform: rotate(360deg); -webkit-transform: rotate(360deg); transform: rotate(360deg);"><path d="M25.7 9.3l-7-7c-.2-.2-.4-.3-.7-.3H8c-1.1 0-2 .9-2 2v24c0 1.1.9 2 2 2h16c1.1 0 2-.9 2-2V10c0-.3-.1-.5-.3-.7zM18 4.4l5.6 5.6H18V4.4zM24 28H8V4h8v6c0 1.1.9 2 2 2h6v16z" fill="#fff"/><path d="M10 22h12v2H10z" fill="#fff"/><path d="M10 16h12v2H10z" fill="#fff"/><rect x="0" y="0" width="40" height="40" fill="rgba(0, 0, 0, 0)" /></svg>